<svg xmlns="http://www.w3.org/2000/svg" viewBox="0 0 720 320" width="720" height="320" font-family="monospace">
  <rect width="720" height="320" fill="#0d1117" rx="12"/>
  <text x="360" y="28" text-anchor="middle" fill="#58a6ff" font-size="15" font-weight="bold">Hourly Treatment Rate — 24-Hour Simulation</text>
  <text x="360" y="46" text-anchor="middle" fill="#8b949e" font-size="11">Peak Hour 11 — 20 patients  |  Average 16 patients/hour</text>

  <!-- Axes -->
  <line x1="50" y1="60" x2="50" y2="255" stroke="#30363d" stroke-width="1.5"/>
  <line x1="50" y1="255" x2="700" y2="255" stroke="#30363d" stroke-width="1.5"/>

  <!-- Y gridlines -->
  <line x1="48" y1="205" x2="700" y2="205" stroke="#21262d" stroke-width="1" stroke-dasharray="3,3"/>
  <line x1="48" y1="155" x2="700" y2="155" stroke="#21262d" stroke-width="1" stroke-dasharray="3,3"/>
  <line x1="48" y1="105" x2="700" y2="105" stroke="#21262d" stroke-width="1" stroke-dasharray="3,3"/>
  <text x="44" y="258" text-anchor="end" fill="#8b949e" font-size="9">0</text>
  <text x="44" y="208" text-anchor="end" fill="#8b949e" font-size="9">5</text>
  <text x="44" y="158" text-anchor="end" fill="#8b949e" font-size="9">10</text>
  <text x="44" y="108" text-anchor="end" fill="#8b949e" font-size="9">15</text>

  <!-- Average line -->
  <line x1="50" y1="175" x2="700" y2="175" stroke="#d29922" stroke-width="1" stroke-dasharray="5,3"/>
  <text x="703" y="178" fill="#e3b341" font-size="9">avg</text>

  <!-- Bars: each hour = 26px wide, gap 1px, scale: 1 patient = 10px -->
  <!-- Hours: 15,15,16,17,17,17,16,16,18,17,20,15,13,15,17,16,14,12,18,18,17,15,17,16 -->
  <rect x="53"  y="105" width="24" height="150" fill="#1f6feb" rx="2"/> <text x="65"  y="100" text-anchor="middle" fill="#8b949e" font-size="8">15</text>
  <rect x="80"  y="105" width="24" height="150" fill="#1f6feb" rx="2"/> <text x="92"  y="100" text-anchor="middle" fill="#8b949e" font-size="8">15</text>
  <rect x="107" y="95"  width="24" height="160" fill="#1f6feb" rx="2"/> <text x="119" y="90"  text-anchor="middle" fill="#8b949e" font-size="8">16</text>
  <rect x="134" y="85"  width="24" height="170" fill="#1f6feb" rx="2"/> <text x="146" y="80"  text-anchor="middle" fill="#8b949e" font-size="8">17</text>
  <rect x="161" y="85"  width="24" height="170" fill="#1f6feb" rx="2"/> <text x="173" y="80"  text-anchor="middle" fill="#8b949e" font-size="8">17</text>
  <rect x="188" y="85"  width="24" height="170" fill="#1f6feb" rx="2"/> <text x="200" y="80"  text-anchor="middle" fill="#8b949e" font-size="8">17</text>
  <rect x="215" y="95"  width="24" height="160" fill="#1f6feb" rx="2"/> <text x="227" y="90"  text-anchor="middle" fill="#8b949e" font-size="8">16</text>
  <rect x="242" y="95"  width="24" height="160" fill="#1f6feb" rx="2"/> <text x="254" y="90"  text-anchor="middle" fill="#8b949e" font-size="8">16</text>
  <rect x="269" y="75"  width="24" height="180" fill="#388bfd" rx="2"/> <text x="281" y="70"  text-anchor="middle" fill="#8b949e" font-size="8">18</text>
  <rect x="296" y="85"  width="24" height="170" fill="#1f6feb" rx="2"/> <text x="308" y="80"  text-anchor="middle" fill="#8b949e" font-size="8">17</text>
  <!-- Peak hour 11 -->
  <rect x="323" y="55"  width="24" height="200" fill="#d29922" rx="2"/> <text x="335" y="50"  text-anchor="middle" fill="#e3b341" font-size="8" font-weight="bold">20</text>
  <rect x="350" y="105" width="24" height="150" fill="#1f6feb" rx="2"/> <text x="362" y="100" text-anchor="middle" fill="#8b949e" font-size="8">15</text>
  <rect x="377" y="125" width="24" height="130" fill="#1f6feb" rx="2"/> <text x="389" y="120" text-anchor="middle" fill="#8b949e" font-size="8">13</text>
  <rect x="404" y="105" width="24" height="150" fill="#1f6feb" rx="2"/> <text x="416" y="100" text-anchor="middle" fill="#8b949e" font-size="8">15</text>
  <rect x="431" y="85"  width="24" height="170" fill="#1f6feb" rx="2"/> <text x="443" y="80"  text-anchor="middle" fill="#8b949e" font-size="8">17</text>
  <rect x="458" y="95"  width="24" height="160" fill="#1f6feb" rx="2"/> <text x="470" y="90"  text-anchor="middle" fill="#8b949e" font-size="8">16</text>
  <rect x="485" y="115" width="24" height="140" fill="#1f6feb" rx="2"/> <text x="497" y="110" text-anchor="middle" fill="#8b949e" font-size="8">14</text>
  <rect x="512" y="135" width="24" height="120" fill="#1f6feb" rx="2"/> <text x="524" y="130" text-anchor="middle" fill="#8b949e" font-size="8">12</text>
  <rect x="539" y="75"  width="24" height="180" fill="#388bfd" rx="2"/> <text x="551" y="70"  text-anchor="middle" fill="#8b949e" font-size="8">18</text>
  <rect x="566" y="75"  width="24" height="180" fill="#388bfd" rx="2"/> <text x="578" y="70"  text-anchor="middle" fill="#8b949e" font-size="8">18</text>
  <rect x="593" y="85"  width="24" height="170" fill="#1f6feb" rx="2"/> <text x="605" y="80"  text-anchor="middle" fill="#8b949e" font-size="8">17</text>
  <rect x="620" y="105" width="24" height="150" fill="#1f6feb" rx="2"/> <text x="632" y="100" text-anchor="middle" fill="#8b949e" font-size="8">15</text>
  <rect x="647" y="85"  width="24" height="170" fill="#1f6feb" rx="2"/> <text x="659" y="80"  text-anchor="middle" fill="#8b949e" font-size="8">17</text>
  <rect x="674" y="95"  width="24" height="160" fill="#1f6feb" rx="2"/> <text x="686" y="90"  text-anchor="middle" fill="#8b949e" font-size="8">16</text>

  <!-- X labels -->
  <text x="65"  y="270" text-anchor="middle" fill="#8b949e" font-size="8">1</text>
  <text x="92"  y="270" text-anchor="middle" fill="#8b949e" font-size="8">2</text>
  <text x="119" y="270" text-anchor="middle" fill="#8b949e" font-size="8">3</text>
  <text x="146" y="270" text-anchor="middle" fill="#8b949e" font-size="8">4</text>
  <text x="173" y="270" text-anchor="middle" fill="#8b949e" font-size="8">5</text>
  <text x="200" y="270" text-anchor="middle" fill="#8b949e" font-size="8">6</text>
  <text x="227" y="270" text-anchor="middle" fill="#8b949e" font-size="8">7</text>
  <text x="254" y="270" text-anchor="middle" fill="#8b949e" font-size="8">8</text>
  <text x="281" y="270" text-anchor="middle" fill="#8b949e" font-size="8">9</text>
  <text x="308" y="270" text-anchor="middle" fill="#8b949e" font-size="8">10</text>
  <text x="335" y="270" text-anchor="middle" fill="#e3b341" font-size="8" font-weight="bold">11</text>
  <text x="362" y="270" text-anchor="middle" fill="#8b949e" font-size="8">12</text>
  <text x="389" y="270" text-anchor="middle" fill="#8b949e" font-size="8">13</text>
  <text x="416" y="270" text-anchor="middle" fill="#8b949e" font-size="8">14</text>
  <text x="443" y="270" text-anchor="middle" fill="#8b949e" font-size="8">15</text>
  <text x="470" y="270" text-anchor="middle" fill="#8b949e" font-size="8">16</text>
  <text x="497" y="270" text-anchor="middle" fill="#8b949e" font-size="8">17</text>
  <text x="524" y="270" text-anchor="middle" fill="#8b949e" font-size="8">18</text>
  <text x="551" y="270" text-anchor="middle" fill="#8b949e" font-size="8">19</text>
  <text x="578" y="270" text-anchor="middle" fill="#8b949e" font-size="8">20</text>
  <text x="605" y="270" text-anchor="middle" fill="#8b949e" font-size="8">21</text>
  <text x="632" y="270" text-anchor="middle" fill="#8b949e" font-size="8">22</text>
  <text x="659" y="270" text-anchor="middle" fill="#8b949e" font-size="8">23</text>
  <text x="686" y="270" text-anchor="middle" fill="#8b949e" font-size="8">24</text>
  <text x="360" y="290" text-anchor="middle" fill="#8b949e" font-size="10">Hour</text>

  <!-- Legend -->
  <rect x="53" y="300" width="12" height="10" fill="#d29922" rx="2"/>
  <text x="70" y="309" fill="#8b949e" font-size="9">Peak Hour</text>
  <rect x="140" y="300" width="12" height="10" fill="#388bfd" rx="2"/>
  <text x="157" y="309" fill="#8b949e" font-size="9">Above Average</text>
  <rect x="260" y="300" width="12" height="10" fill="#1f6feb" rx="2"/>
  <text x="277" y="309" fill="#8b949e" font-size="9">Normal</text>
</svg>
