<svg xmlns="http://www.w3.org/2000/svg" width="800" height="420" viewBox="0 0 800 420">
  <rect width="800" height="420" fill="#0D1117"/>
  <text x="400" y="32" text-anchor="middle" font-family="Segoe UI,Arial" font-size="16" font-weight="bold" fill="#58A6FF">Emergency Room Triage — Priority Distribution</text>
  <text x="400" y="52" text-anchor="middle" font-family="Segoe UI,Arial" font-size="11" fill="#8B949E">1000 Patients · Priority 10 = Most Critical · Priority 1 = Least Critical</text>
  <text x="18" y="230" text-anchor="middle" font-family="Segoe UI,Arial" font-size="11" fill="#8B949E" transform="rotate(-90,18,230)">Number of Patients</text>
  <line x1="70" y1="70"  x2="770" y2="70"  stroke="#21262D" stroke-width="1"/>
  <line x1="70" y1="124" x2="770" y2="124" stroke="#21262D" stroke-width="1"/>
  <line x1="70" y1="178" x2="770" y2="178" stroke="#21262D" stroke-width="1"/>
  <line x1="70" y1="232" x2="770" y2="232" stroke="#21262D" stroke-width="1"/>
  <line x1="70" y1="286" x2="770" y2="286" stroke="#21262D" stroke-width="1"/>
  <line x1="70" y1="350" x2="770" y2="350" stroke="#30363D" stroke-width="1"/>
  <text x="62" y="74"  text-anchor="end" font-family="Segoe UI,Arial" font-size="10" fill="#8B949E">125</text>
  <text x="62" y="128" text-anchor="end" font-family="Segoe UI,Arial" font-size="10" fill="#8B949E">100</text>
  <text x="62" y="182" text-anchor="end" font-family="Segoe UI,Arial" font-size="10" fill="#8B949E">75</text>
  <text x="62" y="236" text-anchor="end" font-family="Segoe UI,Arial" font-size="10" fill="#8B949E">50</text>
  <text x="62" y="290" text-anchor="end" font-family="Segoe UI,Arial" font-size="10" fill="#8B949E">25</text>
  <text x="62" y="354" text-anchor="end" font-family="Segoe UI,Arial" font-size="10" fill="#8B949E">0</text>
  <rect x="80"  y="124" width="52" height="226" fill="#8B0000" rx="3"/>
  <text x="106" y="118" text-anchor="middle" font-family="Segoe UI,Arial" font-size="10" fill="white">105</text>
  <text x="106" y="368" text-anchor="middle" font-family="Segoe UI,Arial" font-size="11" font-weight="bold" fill="#E6EDF3">P10</text>
  <rect x="150" y="124" width="52" height="226" fill="#C0392B" rx="3"/>
  <text x="176" y="118" text-anchor="middle" font-family="Segoe UI,Arial" font-size="10" fill="white">105</text>
  <text x="176" y="368" text-anchor="middle" font-family="Segoe UI,Arial" font-size="11" font-weight="bold" fill="#E6EDF3">P9</text>
  <rect x="220" y="139" width="52" height="211" fill="#E74C3C" rx="3"/>
  <text x="246" y="133" text-anchor="middle" font-family="Segoe UI,Arial" font-size="10" fill="white">98</text>
  <text x="246" y="368" text-anchor="middle" font-family="Segoe UI,Arial" font-size="11" font-weight="bold" fill="#E6EDF3">P8</text>
  <rect x="290" y="111" width="52" height="239" fill="#E67E22" rx="3"/>
  <text x="316" y="105" text-anchor="middle" font-family="Segoe UI,Arial" font-size="10" fill="white">111</text>
  <text x="316" y="368" text-anchor="middle" font-family="Segoe UI,Arial" font-size="11" font-weight="bold" fill="#E6EDF3">P7</text>
  <rect x="360" y="154" width="52" height="196" fill="#F39C12" rx="3"/>
  <text x="386" y="148" text-anchor="middle" font-family="Segoe UI,Arial" font-size="10" fill="white">91</text>
  <text x="386" y="368" text-anchor="middle" font-family="Segoe UI,Arial" font-size="11" font-weight="bold" fill="#E6EDF3">P6</text>
  <rect x="430" y="154" width="52" height="196" fill="#F1C40F" rx="3"/>
  <text x="456" y="148" text-anchor="middle" font-family="Segoe UI,Arial" font-size="10" fill="#333">91</text>
  <text x="456" y="368" text-anchor="middle" font-family="Segoe UI,Arial" font-size="11" font-weight="bold" fill="#E6EDF3">P5</text>
  <rect x="500" y="150" width="52" height="200" fill="#2ECC71" rx="3"/>
  <text x="526" y="144" text-anchor="middle" font-family="Segoe UI,Arial" font-size="10" fill="white">93</text>
  <text x="526" y="368" text-anchor="middle" font-family="Segoe UI,Arial" font-size="11" font-weight="bold" fill="#E6EDF3">P4</text>
  <rect x="570" y="148" width="52" height="202" fill="#27AE60" rx="3"/>
  <text x="596" y="142" text-anchor="middle" font-family="Segoe UI,Arial" font-size="10" fill="white">94</text>
  <text x="596" y="368" text-anchor="middle" font-family="Segoe UI,Arial" font-size="11" font-weight="bold" fill="#E6EDF3">P3</text>
  <rect x="640" y="92"  width="52" height="258" fill="#1ABC9C" rx="3"/>
  <text x="666" y="86"  text-anchor="middle" font-family="Segoe UI,Arial" font-size="10" fill="white">120</text>
  <text x="666" y="368" text-anchor="middle" font-family="Segoe UI,Arial" font-size="11" font-weight="bold" fill="#E6EDF3">P2</text>
  <rect x="710" y="152" width="52" height="198" fill="#16A085" rx="3"/>
  <text x="736" y="146" text-anchor="middle" font-family="Segoe UI,Arial" font-size="10" fill="white">92</text>
  <text x="736" y="368" text-anchor="middle" font-family="Segoe UI,Arial" font-size="11" font-weight="bold" fill="#E6EDF3">P1</text>
  <line x1="70" y1="350" x2="770" y2="350" stroke="#30363D" stroke-width="2"/>
  <line x1="70" y1="60"  x2="70"  y2="350" stroke="#30363D" stroke-width="2"/>
  <text x="400" y="400" text-anchor="middle" font-family="Segoe UI,Arial" font-size="11" fill="#8B949E">■ Dark Red = Critical (P10)   ■ Teal = Least Critical (P1)   Total: 1000 patients</text>
</svg>
